<svg width="800" height="300" viewBox="0 0 800 300" xmlns="http://www.w3.org/2000/svg" style="background-color: #2b2b2b;">
  <defs>
    <pattern id="grid" width="30" height="30" patternUnits="userSpaceOnUse">
      <path d="M 30 0 L 0 0 0 30" fill="none" stroke="#444" stroke-width="2"/>
    </pattern>
    <filter id="paper-shadow" x="-10%" y="-10%" width="120%" height="120%">
      <feGaussianBlur in="SourceAlpha" stdDeviation="4"/>
      <feOffset dx="4" dy="4" result="offsetblur"/>
      <feComponentTransfer>
         <feFuncA type="linear" slope="0.5"/>
      </feComponentTransfer>
      <feMerge>
        <feMergeNode in="offsetblur"/>
        <feMergeNode in="SourceGraphic"/>
      </feMerge>
    </filter>
  </defs>

  <!-- Background -->
  <rect width="800" height="300" fill="#2b2b2b"/>
  <rect width="800" height="300" fill="url(#grid)"/>

  <!-- Clipboard -->
  <g transform="translate(180, 25) rotate(-3)">
    <rect x="0" y="0" width="440" height="280" rx="5" fill="#8B4513" stroke="black" stroke-width="3" filter="url(#paper-shadow)"/> <!-- Board -->
    <rect x="20" y="40" width="400" height="220" fill="#fffff0" stroke="none"/> <!-- Paper -->

    <!-- Clip -->
    <rect x="150" y="-10" width="140" height="40" rx="5" fill="#c0c0c0" stroke="black" stroke-width="3"/>
    <circle cx="220" cy="10" r="8" fill="#333"/>

    <!-- Paper Lines -->
    <g stroke="#add8e6" stroke-width="2">
        <line x1="40" y1="80" x2="400" y2="80"/>
        <line x1="40" y1="110" x2="400" y2="110"/>
        <line x1="40" y1="140" x2="400" y2="140"/>
        <line x1="40" y1="170" x2="400" y2="170"/>
        <line x1="40" y1="200" x2="400" y2="200"/>
    </g>

    <!-- Content -->
    <text x="50" y="75" font-family="Comic Sans MS, cursive, sans-serif" font-size="24" fill="#000080">Project Log:</text>

    <g>
        <text x="50" y="105" font-family="Comic Sans MS, cursive, sans-serif" font-size="18" fill="#333">1. Built new rat maze.</text>
        <animate attributeName="opacity" values="0;1" dur="0.5s" fill="freeze"/>
    </g>
    <g>
        <text x="50" y="135" font-family="Comic Sans MS, cursive, sans-serif" font-size="18" fill="#333">2. Calibrated sensors.</text>
        <animate attributeName="opacity" values="0;1" begin="0.5s" dur="0.5s" fill="freeze"/>
    </g>
    <g>
        <text x="50" y="165" font-family="Comic Sans MS, cursive, sans-serif" font-size="18" fill="#333">3. Added Music Converter.</text>
        <animate attributeName="opacity" values="0;1" begin="1.0s" dur="0.5s" fill="freeze"/>
    </g>
    <g>
        <text x="50" y="195" font-family="Comic Sans MS, cursive, sans-serif" font-size="18" fill="#333">4. </text>
        <!-- Typing effect cursor -->
        <rect x="75" y="180" width="2" height="18" fill="black">
            <animate attributeName="opacity" values="1;0;1" dur="0.8s" repeatCount="indefinite"/>
        </rect>
    </g>
    <g>
        <!-- Musical note doodle -->
        <path d="M 300 150 Q 310 140 320 150 L 320 130 Q 330 120 330 130 L 330 150" fill="none" stroke="#333" stroke-width="2">
             <animate attributeName="opacity" values="0;1" begin="1.5s" dur="0.5s" fill="freeze"/>
        </path>
    </g>

    <!-- Stamp -->
    <g transform="translate(300, 150) rotate(-15)">
        <rect x="0" y="0" width="100" height="50" rx="5" fill="none" stroke="#aa0000" stroke-width="5" opacity="0.4"/>
        <text x="50" y="35" font-family="Impact, sans-serif" font-size="30" fill="#aa0000" text-anchor="middle" opacity="0.4">APPROVED</text>
    </g>

    <!-- Rat Paw Prints -->
    <g transform="translate(350, 210) rotate(30)" fill="#654321" opacity="0.7">
       <circle cx="20" cy="20" r="8"/>
       <circle cx="10" cy="8" r="3"/>
       <circle cx="20" cy="4" r="3"/>
       <circle cx="30" cy="8" r="3"/>
    </g>
    <g transform="translate(380, 190) rotate(45)" fill="#654321" opacity="0.7">
       <circle cx="20" cy="20" r="8"/>
       <circle cx="10" cy="8" r="3"/>
       <circle cx="20" cy="4" r="3"/>
       <circle cx="30" cy="8" r="3"/>
    </g>
  </g>

  <!-- Title Text -->
  <text x="650" y="270" font-family="Impact, sans-serif" font-size="45" fill="#ffcc00" stroke="black" stroke-width="2" text-anchor="end" transform="rotate(-5 650 270)">LIVING JOURNAL</text>
  <text x="650" y="290" font-family="Comic Sans MS, cursive, sans-serif" font-size="16" fill="#fff" text-anchor="end" transform="rotate(-5 650 290)">UPDATED DAILY(ISH)</text>

</svg>
